<svg xmlns="http://www.w3.org/2000/svg" viewBox="0 0 500 500"><g fill="none"><g clip-path="url(#a)"><path fill="#FF9A94" d="M0 0h500v500H0z"/></g><defs><clipPath id="a"><path fill="#fff" d="M0 0h500v500H0z"/></clipPath></defs></g><path fill="#79A4F9" fill-opacity="0" d="M0 0h500v500H0z"/><g fill="none"><g clip-path="url(#b)"><path fill="#373737" d="m267.641 430 103.923 60-34.641 20L233 450z"/><path fill="#252525" d="m233 450 103.923 60v40L233 490z"/><path fill="#101010" d="m336.923 510 34.641-20v40l-34.641 20z"/><path fill="#414141" d="m267.641 390 103.923 60-34.641 20L233 410z"/><path fill="#373737" d="m233 410 103.923 60v40L233 450z"/><path fill="#181818" d="m336.923 470 34.641-20v40l-34.641 20z"/><path fill="#373737" d="m233 410 103.923 60-34.641 20-103.923-60z"/><path fill="#252525" d="m198.359 430 103.923 60v40l-103.923-60z"/><path fill="#101010" d="m302.282 490 34.641-20v40l-34.641 20z"/><path fill="#414141" d="m198.359 430 103.923 60-34.641 20-103.923-60z"/><path fill="#373737" d="m163.718 450 103.923 60v40l-103.923-60z"/><path fill="#181818" d="m267.641 510 34.641-20v40l-34.641 20z"/><path fill="#373737" d="m267.641 350 103.923 60-34.641 20L233 370z"/><path fill="#252525" d="m233 370 103.923 60v40L233 410z"/><path fill="#101010" d="m336.923 430 34.641-20v40l-34.641 20z"/><path fill="#414141" d="m233 370 103.923 60-34.641 20-103.923-60z"/><path fill="#373737" d="m198.359 390 103.923 60v40l-103.923-60z"/><path fill="#181818" d="m302.282 450 34.641-20v40l-34.641 20z"/><path fill="#373737" d="m198.359 390 103.923 60-34.641 20-103.923-60z"/><path fill="#252525" d="m163.718 410 103.923 60v40l-103.923-60z"/><path fill="#101010" d="m267.641 470 34.641-20v40l-34.641 20z"/><path fill="#414141" d="m163.718 410 103.923 60L233 490l-103.923-60z"/><path fill="#373737" d="M129.077 430 233 490v40l-103.923-60z"/><path fill="#181818" d="m233 490 34.641-20v40L233 530z"/><path fill="#373737" d="M129.077 430 233 490l-34.641 20-103.923-60z"/><path fill="#252525" d="m94.436 450 103.923 60v40L94.436 490z"/><path fill="#101010" d="M198.359 510 233 490v40l-34.641 20z"/><path fill="#414141" d="m267.641 310 103.923 60-34.641 20L233 330z"/><path fill="#373737" d="m233 330 103.923 60v40L233 370z"/><path fill="#181818" d="m336.923 390 34.641-20v40l-34.641 20z"/><path fill="#373737" d="m233 330 103.923 60-34.641 20-103.923-60z"/><path fill="#252525" d="m198.359 350 103.923 60v40l-103.923-60z"/><path fill="#101010" d="m302.282 410 34.641-20v40l-34.641 20z"/><path fill="#414141" d="m198.359 350 103.923 60-34.641 20-103.923-60z"/><path fill="#373737" d="m163.718 370 103.923 60v40l-103.923-60z"/><path fill="#181818" d="m267.641 430 34.641-20v40l-34.641 20z"/><path fill="#373737" d="m163.718 370 103.923 60L233 450l-103.923-60z"/><path fill="#252525" d="M129.077 390 233 450v40l-103.923-60z"/><path fill="#101010" d="m233 450 34.641-20v40L233 490z"/><path fill="#414141" d="M129.077 390 233 450l-34.641 20-103.923-60z"/><path fill="#373737" d="m94.436 410 103.923 60v40L94.436 450z"/><path fill="#181818" d="M198.359 470 233 450v40l-34.641 20z"/><path fill="#373737" d="m267.641 270 103.923 60-34.641 20L233 290z"/><path fill="#252525" d="m233 290 103.923 60v40L233 330z"/><path fill="#101010" d="m336.923 350 34.641-20v40l-34.641 20z"/><path fill="#414141" d="m233 290 103.923 60-34.641 20-103.923-60z"/><path fill="#373737" d="m198.359 310 103.923 60v40l-103.923-60z"/><path fill="#181818" d="m302.282 370 34.641-20v40l-34.641 20z"/><path fill="#373737" d="m198.359 310 103.923 60-34.641 20-103.923-60z"/><path fill="#252525" d="m163.718 330 103.923 60v40l-103.923-60z"/><path fill="#101010" d="m267.641 390 34.641-20v40l-34.641 20z"/><path fill="#414141" d="m163.718 330 103.923 60L233 410l-103.923-60z"/><path fill="#373737" d="M129.077 350 233 410v40l-103.923-60z"/><path fill="#181818" d="m233 410 34.641-20v40L233 450z"/><path fill="#373737" d="M129.077 350 233 410l-34.641 20-103.923-60z"/><path fill="#252525" d="m94.436 370 103.923 60v40L94.436 410z"/><path fill="#101010" d="M198.359 430 233 410v40l-34.641 20z"/><path fill="#333" d="m116.941 383 34.641 20-34.641 20L82.3 403z"/><path fill="#212121" d="m82.3 403 34.64 20v120L82.3 523z"/><path fill="#0E0E0E" d="m116.941 423 34.641-20v120l-34.641 20z"/></g><defs><clipPath id="b"><path fill="#fff" d="M0 0h500v500H0z"/></clipPath></defs></g><path fill="#79A4F9" fill-opacity="0" d="M0 0h500v500H0z"/><g fill="none"><g clip-path="url(#c)"><path fill="#DFB800" d="m302.282 450 34.641-20v40l-34.641 20z"/><path fill="#B29400" d="m267.641 470 34.641-20v40l-34.641 20z"/><path fill="#DFB800" d="m233 490 34.641-20v40L233 530z"/></g><defs><clipPath id="c"><path fill="#fff" d="M0 0h500v500H0z"/></clipPath></defs></g><g fill="none"><g filter="url(#d)"><path fill="#000" d="m234.046 281.262 136.342 78.717-120.046 69.309L114 350.57z"/></g><path fill="#6CCB00" d="m267.685 200 155.885 90-34.642 20-155.884-90z"/><path fill="#4D9100" d="m233.044 220 155.884 90v40l-155.884-90z"/><path fill="#1A3100" d="m388.929 310 34.641-20v40l-34.641 20z"/><path fill="#5CAD00" d="m233.044 220 155.884 90-34.64 20-155.885-90z"/><path fill="#4D9100" d="m198.403 240 155.885 90v40l-155.885-90z"/><path fill="#0A1300" d="m354.288 330 34.641-20v40l-34.641 20z"/><path fill="#6CCB00" d="m198.403 240 155.885 90-34.642 20-155.884-90z"/><path fill="#4D9100" d="m163.762 260 155.885 90v40l-155.885-90z"/><path fill="#1A3100" d="m319.647 350 34.641-20v40l-34.641 20z"/><path fill="#5CAD00" d="m163.762 260 155.885 90-34.642 20-155.884-90z"/><path fill="#4D9100" d="m129.121 280 155.884 90v40l-155.884-90z"/><path fill="#0A1300" d="m285.006 370 34.641-20v40l-34.641 20z"/><path fill="#6CCB00" d="m129.121 280 155.884 90-34.64 20L94.48 300z"/><path fill="#4D9100" d="m94.48 300 155.885 90v40L94.48 340z"/><path fill="#1A3100" d="m250.365 390 34.641-20v40l-34.641 20z"/><defs><filter id="d" width="286.388" height="178.027" x="99" y="278.262" color-interpolation-filters="sRGB" filterUnits="userSpaceOnUse"><feFlood flood-opacity="0" result="BackgroundImageFix"/><feColorMatrix in="SourceAlpha" result="hardAlpha" type="matrix" values="0 0 0 0 0 0 0 0 0 0 0 0 0 0 0 0 0 0 127 0"/><feOffset dy="12"/><feGaussianBlur stdDeviation="7.5"/><feColorMatrix type="matrix" values="0 0 0 0 0 0 0 0 0 0 0 0 0 0 0 0 0 0 0.5 0"/><feBlend in2="BackgroundImageFix" mode="normal" result="effect1_dropShadow_713_80995"/><feBlend in="SourceGraphic" in2="effect1_dropShadow_713_80995" mode="normal" result="shape"/></filter></defs></g><g fill="none"><mask id="e" width="23" height="28" x="178" y="361" maskUnits="userSpaceOnUse" style="mask-type:alpha"><path fill="#D4D4D4" d="m178 361.797 22.517 13v14l-22.517-13z"/></mask><g mask="url(#e)"><path fill="#D4D4D4" d="m178 361.797 21.65-12.5v14l-21.65 12.5z"/><path fill="#FAFAFA" d="m199.65 363.297 22.517 13-21.651 12.5-22.517-13z"/><path fill="#AEAEAE" d="m199.65 349.297 22.517 13v14l-22.517-13z"/></g><mask id="f" width="23" height="28" x="214" y="382" maskUnits="userSpaceOnUse" style="mask-type:alpha"><path fill="#D4D4D4" d="m214 382.594 22.517 13v14l-22.517-13z"/></mask><g mask="url(#f)"><path fill="#D4D4D4" d="m214 382.594 21.65-12.5v14l-21.65 12.5z"/><path fill="#FAFAFA" d="m235.65 384.094 22.517 13-21.651 12.5-22.517-13z"/><path fill="#AEAEAE" d="m235.65 370.094 22.517 13v14l-22.517-13z"/></g></g><g fill="none"><g filter="url(#g)"><path fill="#000" d="m241.37 215.672 103.092 59.52-128.37 74.115L113 289.787z"/></g><path fill="#A21212" d="m250.564 110 34.641 20-34.641 20-34.641-20z"/><path fill="#6E0C0C" d="m215.923 130 34.641 20v100l-34.641-20z"/><path fill="#340606" d="m250.564 150 34.641-20v100l-34.641 20z"/><path fill="#8E1010" d="m215.923 130 34.641 20-34.641 20-34.641-20z"/><path fill="#5D0A0A" d="m181.282 150 34.641 20v100l-34.641-20z"/><path fill="#270404" d="m215.923 170 34.641-20v100l-34.641 20z"/><path fill="#A21212" d="m181.282 150 34.641 20-34.641 20-34.641-20z"/><path fill="#6E0C0C" d="m146.641 170 34.641 20v100l-34.641-20z"/><path fill="#340606" d="m181.282 190 34.641-20v100l-34.641 20z"/><path fill="#8E1010" d="m146.641 170 34.641 20-34.641 20L112 190z"/><path fill="#5D0A0A" d="m112 190 34.641 20v100L112 290z"/><path fill="#270404" d="m146.641 210 34.641-20v100l-34.641 20z"/><path fill="#8E1010" d="m285.205 130 34.641 20-34.641 20-34.641-20z"/><path fill="#5D0A0A" d="m250.564 150 34.641 20v100l-34.641-20z"/><path fill="#270404" d="m285.205 170 34.641-20v100l-34.641 20z"/><path fill="#A21212" d="m250.564 150 34.641 20-34.641 20-34.641-20z"/><path fill="#6E0C0C" d="m215.923 170 34.641 20v100l-34.641-20z"/><path fill="#340606" d="m250.564 190 34.641-20v100l-34.641 20z"/><path fill="#8E1010" d="m215.923 170 34.641 20-34.641 20-34.641-20z"/><path fill="#5D0A0A" d="m181.282 190 34.641 20v100l-34.641-20z"/><path fill="#270404" d="m215.923 210 34.641-20v100l-34.641 20z"/><path fill="#A21212" d="m181.282 190 34.641 20-34.641 20-34.641-20z"/><path fill="#6E0C0C" d="m146.641 210 34.641 20v100l-34.641-20z"/><path fill="#340606" d="m181.282 230 34.641-20v100l-34.641 20z"/><path fill="#A21212" d="m319.846 150 34.641 20-34.641 20-34.641-20z"/><path fill="#6E0C0C" d="m285.205 170 34.641 20v100l-34.641-20z"/><path fill="#340606" d="m319.846 190 34.641-20v100l-34.641 20z"/><path fill="#8E1010" d="m285.205 170 34.641 20-34.641 20-34.641-20z"/><path fill="#5D0A0A" d="m250.564 190 34.641 20v100l-34.641-20z"/><path fill="#270404" d="m285.205 210 34.641-20v100l-34.641 20z"/><path fill="#A21212" d="m250.564 190 34.641 20-34.641 20-34.641-20z"/><path fill="#6E0C0C" d="m215.923 210 34.641 20v100l-34.641-20z"/><path fill="#340606" d="m250.564 230 34.641-20v100l-34.641 20z"/><path fill="#8E1010" d="m215.923 210 34.641 20-34.641 20-34.641-20z"/><path fill="#5D0A0A" d="m181.282 230 34.641 20v100l-34.641-20z"/><path fill="#270404" d="m215.923 250 34.641-20v100l-34.641 20z"/><defs><filter id="g" width="268.662" height="170.837" x="106.4" y="205.072" color-interpolation-filters="sRGB" filterUnits="userSpaceOnUse"><feFlood flood-opacity="0" result="BackgroundImageFix"/><feColorMatrix in="SourceAlpha" result="hardAlpha" type="matrix" values="0 0 0 0 0 0 0 0 0 0 0 0 0 0 0 0 0 0 127 0"/><feMorphology in="SourceAlpha" operator="dilate" radius="5" result="effect1_dropShadow_713_80995"/><feOffset dx="12" dy="8"/><feGaussianBlur stdDeviation="6.8"/><feColorMatrix type="matrix" values="0 0 0 0 0 0 0 0 0 0 0 0 0 0 0 0 0 0 0.16 0"/><feBlend in2="BackgroundImageFix" mode="normal" result="effect1_dropShadow_713_80995"/><feBlend in="SourceGraphic" in2="effect1_dropShadow_713_80995" mode="normal" result="shape"/></filter></defs></g><g fill="none"><path fill="#006855" fill-rule="evenodd" d="m354.487 50.004-69.282 40v39.998l34.641 20-34.641 19.999v.003l69.282-40z" clip-rule="evenodd"/><path fill="#17FCAB" d="m319.846 30 34.641 20-69.282 40-34.641-20z"/><path fill="#00A984" d="m250.564 70 34.641 20v40l-34.641-20z"/><path fill="#17FCAB" d="m112 150 34.641 20-69.282 40-34.641-20z"/><path fill="#00A984" d="m42.718 190 34.641 20v80l-34.64-20z"/><path fill="#006855" d="m77.36 210 69.281-40v80L77.36 290z"/></g><g fill="none"><path fill="#fff" d="m354.487 90 69.282 40-69.282 40-69.282-40z"/><path fill="#E9F1F3" d="m285.205 130 69.282 40v140l-69.282-40z"/><path fill="#B3D0D5" d="m354.487 170 69.282-40v140l-69.282 40z"/><path fill="#fff" d="m250.564 150 69.282 40-69.282 40-69.282-40z"/><path fill="#E9F1F3" d="m181.282 190 69.282 40v140l-69.282-40z"/><path fill="#B3D0D5" d="m250.564 230 69.282-40v140l-69.282 40z"/></g><g fill="none"><mask id="h" width="15" height="78" x="364" y="212" maskUnits="userSpaceOnUse" style="mask-type:alpha"><path fill="#B26F6D" d="m364.564 220 13.856-8v70l-13.856 8z"/></mask><g mask="url(#h)"><path fill="#F40000" d="m356.77 199.5 21.65 12.5v70l-21.65-12.5z"/><path fill="#FF3B3B" d="m342.913 277.5 13.856-8L378.42 282l-13.856 8z"/></g><mask id="i" width="15" height="78" x="260" y="272" maskUnits="userSpaceOnUse" style="mask-type:alpha"><path fill="#B26F6D" d="m260.641 280 13.856-8v70l-13.856 8z"/></mask><g mask="url(#i)"><path fill="#F40000" d="m252.847 259.5 21.65 12.5v70l-21.65-12.5z"/><path fill="#FF3B3B" d="m238.99 337.5 13.856-8 21.651 12.5-13.856 8z"/></g></g></svg>