<svg xmlns="http://www.w3.org/2000/svg" viewBox="0 0 500 500"><g fill="none"><g clip-path="url(#a)"><path fill="#91C4FF" d="M0 0h500v500H0z"/></g><defs><clipPath id="a"><path fill="#fff" d="M0 0h500v500H0z"/></clipPath></defs></g><path fill="#79A4F9" fill-opacity="0" d="M0 0h500v500H0z"/><g fill="none"><g clip-path="url(#b)"><path fill="#981175" d="m267.641 430 103.923 60-34.641 20L233 450z"/><path fill="#670B4F" d="m233 450 103.923 60v40L233 490z"/><path fill="#2B0521" d="m336.923 510 34.641-20v40l-34.641 20z"/><path fill="#B21489" d="m267.641 390 103.923 60-34.641 20L233 410z"/><path fill="#961174" d="m233 410 103.923 60v40L233 450z"/><path fill="#420733" d="m336.923 470 34.641-20v40l-34.641 20z"/><path fill="#981175" d="m233 410 103.923 60-34.641 20-103.923-60z"/><path fill="#670B4F" d="m198.359 430 103.923 60v40l-103.923-60z"/><path fill="#2B0521" d="m302.282 490 34.641-20v40l-34.641 20z"/><path fill="#B21489" d="m198.359 430 103.923 60-34.641 20-103.923-60z"/><path fill="#961174" d="m163.718 450 103.923 60v40l-103.923-60z"/><path fill="#420733" d="m267.641 510 34.641-20v40l-34.641 20z"/><path fill="#981175" d="m267.641 350 103.923 60-34.641 20L233 370z"/><path fill="#670B4F" d="m233 370 103.923 60v40L233 410z"/><path fill="#2B0521" d="m336.923 430 34.641-20v40l-34.641 20z"/><path fill="#B21489" d="m233 370 103.923 60-34.641 20-103.923-60z"/><path fill="#961174" d="m198.359 390 103.923 60v40l-103.923-60z"/><path fill="#420733" d="m302.282 450 34.641-20v40l-34.641 20z"/><path fill="#981175" d="m198.359 390 103.923 60-34.641 20-103.923-60z"/><path fill="#670B4F" d="m163.718 410 103.923 60v40l-103.923-60z"/><path fill="#2B0521" d="m267.641 470 34.641-20v40l-34.641 20z"/><path fill="#B21489" d="m163.718 410 103.923 60L233 490l-103.923-60z"/><path fill="#961174" d="M129.077 430 233 490v40l-103.923-60z"/><path fill="#420733" d="m233 490 34.641-20v40L233 530z"/><path fill="#981175" d="M129.077 430 233 490l-34.641 20-103.923-60z"/><path fill="#670B4F" d="m94.436 450 103.923 60v40L94.436 490z"/><path fill="#2B0521" d="M198.359 510 233 490v40l-34.641 20z"/><path fill="#B21489" d="m267.641 310 103.923 60-34.641 20L233 330z"/><path fill="#961174" d="m233 330 103.923 60v40L233 370z"/><path fill="#420733" d="m336.923 390 34.641-20v40l-34.641 20z"/><path fill="#981175" d="m233 330 103.923 60-34.641 20-103.923-60z"/><path fill="#670B4F" d="m198.359 350 103.923 60v40l-103.923-60z"/><path fill="#2B0521" d="m302.282 410 34.641-20v40l-34.641 20z"/><path fill="#B21489" d="m198.359 350 103.923 60-34.641 20-103.923-60z"/><path fill="#961174" d="m163.718 370 103.923 60v40l-103.923-60z"/><path fill="#420733" d="m267.641 430 34.641-20v40l-34.641 20z"/><path fill="#981175" d="m163.718 370 103.923 60L233 450l-103.923-60z"/><path fill="#670B4F" d="M129.077 390 233 450v40l-103.923-60z"/><path fill="#2B0521" d="m233 450 34.641-20v40L233 490z"/><path fill="#B21489" d="M129.077 390 233 450l-34.641 20-103.923-60z"/><path fill="#961174" d="m94.436 410 103.923 60v40L94.436 450z"/><path fill="#420733" d="M198.359 470 233 450v40l-34.641 20z"/><path fill="#981175" d="m267.641 270 103.923 60-34.641 20L233 290z"/><path fill="#670B4F" d="m233 290 103.923 60v40L233 330z"/><path fill="#2B0521" d="m336.923 350 34.641-20v40l-34.641 20z"/><path fill="#B21489" d="m233 290 103.923 60-34.641 20-103.923-60z"/><path fill="#961174" d="m198.359 310 103.923 60v40l-103.923-60z"/><path fill="#420733" d="m302.282 370 34.641-20v40l-34.641 20z"/><path fill="#981175" d="m198.359 310 103.923 60-34.641 20-103.923-60z"/><path fill="#670B4F" d="m163.718 330 103.923 60v40l-103.923-60z"/><path fill="#2B0521" d="m267.641 390 34.641-20v40l-34.641 20z"/><path fill="#B21489" d="m163.718 330 103.923 60L233 410l-103.923-60z"/><path fill="#961174" d="M129.077 350 233 410v40l-103.923-60z"/><path fill="#420733" d="m233 410 34.641-20v40L233 450z"/><path fill="#981175" d="M129.077 350 233 410l-34.641 20-103.923-60z"/><path fill="#670B4F" d="m94.436 370 103.923 60v40L94.436 410z"/><path fill="#2B0521" d="M198.359 430 233 410v40l-34.641 20z"/><path fill="#8C106C" d="m116.941 383 34.641 20-34.641 20L82.3 403z"/><path fill="#5B0A46" d="m82.3 403 34.64 20v120L82.3 523z"/><path fill="#27041E" d="m116.941 423 34.641-20v120l-34.641 20z"/></g><defs><clipPath id="b"><path fill="#fff" d="M0 0h500v500H0z"/></clipPath></defs></g><path fill="#79A4F9" fill-opacity="0" d="M0 0h500v500H0z"/><g fill="none"><g clip-path="url(#c)"><path fill="#B91883" d="m302.282 490 34.641-20v40l-34.641 20z"/><path fill="#E1189D" d="m267.641 510 34.641-20v40l-34.641 20z"/><path fill="#B91883" d="m267.641 470 34.641-20v40l-34.641 20z"/><path fill="#E1189D" d="m233 490 34.641-20v40L233 530z"/><path fill="#B91883" d="m233 450 34.641-20v40L233 490z"/></g><defs><clipPath id="c"><path fill="#fff" d="M0 0h500v500H0z"/></clipPath></defs></g><g fill="none"><g filter="url(#d)"><path fill="#000" d="m234.046 281.262 136.342 78.717-120.046 69.309L114 350.57z"/></g><path fill="#E19200" d="m267.685 200 155.885 90-34.642 20-155.884-90z"/><path fill="#A56B00" d="m233.044 220 155.884 90v40l-155.884-90z"/><path fill="#422B00" d="m388.929 310 34.641-20v40l-34.641 20z"/><path fill="#C27E00" d="m233.044 220 155.884 90-34.64 20-155.885-90z"/><path fill="#A56B00" d="m198.403 240 155.885 90v40l-155.885-90z"/><path fill="#231700" d="m354.288 330 34.641-20v40l-34.641 20z"/><path fill="#E19200" d="m198.403 240 155.885 90-34.642 20-155.884-90z"/><path fill="#A56B00" d="m163.762 260 155.885 90v40l-155.885-90z"/><path fill="#422B00" d="m319.647 350 34.641-20v40l-34.641 20z"/><path fill="#C27E00" d="m163.762 260 155.885 90-34.642 20-155.884-90z"/><path fill="#A56B00" d="m129.121 280 155.884 90v40l-155.884-90z"/><path fill="#231700" d="m285.006 370 34.641-20v40l-34.641 20z"/><path fill="#E19200" d="m129.121 280 155.884 90-34.64 20L94.48 300z"/><path fill="#A56B00" d="m94.48 300 155.885 90v40L94.48 340z"/><path fill="#422B00" d="m250.365 390 34.641-20v40l-34.641 20z"/><defs><filter id="d" width="286.388" height="178.027" x="99" y="278.262" color-interpolation-filters="sRGB" filterUnits="userSpaceOnUse"><feFlood flood-opacity="0" result="BackgroundImageFix"/><feColorMatrix in="SourceAlpha" result="hardAlpha" type="matrix" values="0 0 0 0 0 0 0 0 0 0 0 0 0 0 0 0 0 0 127 0"/><feOffset dy="12"/><feGaussianBlur stdDeviation="7.5"/><feColorMatrix type="matrix" values="0 0 0 0 0 0 0 0 0 0 0 0 0 0 0 0 0 0 0.5 0"/><feBlend in2="BackgroundImageFix" mode="normal" result="effect1_dropShadow_713_80995"/><feBlend in="SourceGraphic" in2="effect1_dropShadow_713_80995" mode="normal" result="shape"/></filter></defs></g><g fill="none"><mask id="e" width="23" height="28" x="107" y="320" maskUnits="userSpaceOnUse" style="mask-type:alpha"><path fill="#D4D4D4" d="m107 320.797 22.517 13v14l-22.517-13z"/></mask><g mask="url(#e)"><path fill="#D4D4D4" d="m107 320.797 21.65-12.5v14l-21.65 12.5z"/><path fill="#FAFAFA" d="m128.65 322.297 22.517 13-21.651 12.5-22.517-13z"/><path fill="#AEAEAE" d="m128.65 308.297 22.517 13v14l-22.517-13z"/></g><mask id="f" width="23" height="28" x="143" y="341" maskUnits="userSpaceOnUse" style="mask-type:alpha"><path fill="#D4D4D4" d="m143 341.594 22.517 13v14l-22.517-13z"/></mask><g mask="url(#f)"><path fill="#D4D4D4" d="m143 341.594 21.65-12.5v14l-21.65 12.5z"/><path fill="#FAFAFA" d="m164.65 343.094 22.517 13-21.651 12.5-22.517-13z"/><path fill="#AEAEAE" d="m164.65 329.094 22.517 13v14l-22.517-13z"/></g><mask id="g" width="23" height="28" x="178" y="361" maskUnits="userSpaceOnUse" style="mask-type:alpha"><path fill="#D4D4D4" d="m178 361.797 22.517 13v14l-22.517-13z"/></mask><g mask="url(#g)"><path fill="#D4D4D4" d="m178 361.797 21.65-12.5v14l-21.65 12.5z"/><path fill="#FAFAFA" d="m199.65 363.297 22.517 13-21.651 12.5-22.517-13z"/><path fill="#AEAEAE" d="m199.65 349.297 22.517 13v14l-22.517-13z"/></g><mask id="h" width="23" height="28" x="214" y="382" maskUnits="userSpaceOnUse" style="mask-type:alpha"><path fill="#D4D4D4" d="m214 382.594 22.517 13v14l-22.517-13z"/></mask><g mask="url(#h)"><path fill="#D4D4D4" d="m214 382.594 21.65-12.5v14l-21.65 12.5z"/><path fill="#FAFAFA" d="m235.65 384.094 22.517 13-21.651 12.5-22.517-13z"/><path fill="#AEAEAE" d="m235.65 370.094 22.517 13v14l-22.517-13z"/></g></g><g fill="none"><g filter="url(#i)"><path fill="#000" d="m241.37 215.672 103.092 59.52-128.37 74.115L113 289.787z"/></g><path fill="#113E95" d="m250.564 110 34.641 20-34.641 20-34.641-20z"/><path fill="#0B2A65" d="m215.923 130 34.641 20v100l-34.641-20z"/><path fill="#051431" d="m250.564 150 34.641-20v100l-34.641 20z"/><path fill="#0F3783" d="m215.923 130 34.641 20-34.641 20-34.641-20z"/><path fill="#0A2456" d="m181.282 150 34.641 20v100l-34.641-20z"/><path fill="#040F23" d="m215.923 170 34.641-20v100l-34.641 20z"/><path fill="#113E95" d="m181.282 150 34.641 20-34.641 20-34.641-20z"/><path fill="#0B2A65" d="m146.641 170 34.641 20v100l-34.641-20z"/><path fill="#051431" d="m181.282 190 34.641-20v100l-34.641 20z"/><path fill="#0F3783" d="m146.641 170 34.641 20-34.641 20L112 190z"/><path fill="#0A2456" d="m112 190 34.641 20v100L112 290z"/><path fill="#040F23" d="m146.641 210 34.641-20v100l-34.641 20z"/><path fill="#0F3783" d="m285.205 130 34.641 20-34.641 20-34.641-20z"/><path fill="#0A2456" d="m250.564 150 34.641 20v100l-34.641-20z"/><path fill="#040F23" d="m285.205 170 34.641-20v100l-34.641 20z"/><path fill="#113E95" d="m250.564 150 34.641 20-34.641 20-34.641-20z"/><path fill="#0B2A65" d="m215.923 170 34.641 20v100l-34.641-20z"/><path fill="#051431" d="m250.564 190 34.641-20v100l-34.641 20z"/><path fill="#0F3783" d="m215.923 170 34.641 20-34.641 20-34.641-20z"/><path fill="#0A2456" d="m181.282 190 34.641 20v100l-34.641-20z"/><path fill="#040F23" d="m215.923 210 34.641-20v100l-34.641 20z"/><path fill="#113E95" d="m181.282 190 34.641 20-34.641 20-34.641-20z"/><path fill="#0B2A65" d="m146.641 210 34.641 20v100l-34.641-20z"/><path fill="#051431" d="m181.282 230 34.641-20v100l-34.641 20z"/><path fill="#113E95" d="m319.846 150 34.641 20-34.641 20-34.641-20z"/><path fill="#0B2A65" d="m285.205 170 34.641 20v100l-34.641-20z"/><path fill="#051431" d="m319.846 190 34.641-20v100l-34.641 20z"/><path fill="#0F3783" d="m285.205 170 34.641 20-34.641 20-34.641-20z"/><path fill="#0A2456" d="m250.564 190 34.641 20v100l-34.641-20z"/><path fill="#040F23" d="m285.205 210 34.641-20v100l-34.641 20z"/><path fill="#113E95" d="m250.564 190 34.641 20-34.641 20-34.641-20z"/><path fill="#0B2A65" d="m215.923 210 34.641 20v100l-34.641-20z"/><path fill="#051431" d="m250.564 230 34.641-20v100l-34.641 20z"/><path fill="#0F3783" d="m215.923 210 34.641 20-34.641 20-34.641-20z"/><path fill="#0A2456" d="m181.282 230 34.641 20v100l-34.641-20z"/><path fill="#040F23" d="m215.923 250 34.641-20v100l-34.641 20z"/><defs><filter id="i" width="268.662" height="170.837" x="106.4" y="205.072" color-interpolation-filters="sRGB" filterUnits="userSpaceOnUse"><feFlood flood-opacity="0" result="BackgroundImageFix"/><feColorMatrix in="SourceAlpha" result="hardAlpha" type="matrix" values="0 0 0 0 0 0 0 0 0 0 0 0 0 0 0 0 0 0 127 0"/><feMorphology in="SourceAlpha" operator="dilate" radius="5" result="effect1_dropShadow_713_80995"/><feOffset dx="12" dy="8"/><feGaussianBlur stdDeviation="6.8"/><feColorMatrix type="matrix" values="0 0 0 0 0 0 0 0 0 0 0 0 0 0 0 0 0 0 0.16 0"/><feBlend in2="BackgroundImageFix" mode="normal" result="effect1_dropShadow_713_80995"/><feBlend in="SourceGraphic" in2="effect1_dropShadow_713_80995" mode="normal" result="shape"/></filter></defs></g><g fill="none"><path fill="#FC1FFC" d="m285.205 50 34.641 20-69.282 40-34.641-20z"/><path fill="#C200C2" d="m215.923 90 34.641 20v40l-34.641-20z"/><path fill="#780078" d="m250.564 110 69.282-40v40l-69.282 40z"/><path fill="#FC1FFC" d="m112 110 69.282 40-34.641 20-69.282-40z"/><path fill="#C200C2" d="m77.359 130 69.282 40v40l-69.282-40z"/><path fill="#780078" d="m146.641 170 34.641-20v40l-34.641 20z"/></g><g fill="none"><path fill="#fff" d="m319.846 70 34.641 20-34.641 20-34.641-20z"/><path fill="#E9F1F3" d="m285.205 90 34.641 20v80l-34.641-20z"/><path fill="#B3D0D5" d="m319.846 110 34.641-20v180l-34.641 20z"/><path fill="#fff" d="m215.923 130 34.641 20-34.641 20-34.641-20z"/><path fill="#E9F1F3" d="m181.282 150 34.641 20v180l-34.641-20z"/><path fill="#B3D0D5" d="m215.923 170 34.641-20v180l-34.641 20z"/></g><g fill="none"><path fill="#E90B1B" d="m319.846 240 34.641-20v50l-34.641 20z"/><path fill="#F64753" d="m181.282 280 34.641 20v50l-34.641-20z"/><path fill="#E90B1B" d="m215.923 300 34.641-20v50l-34.641 20z"/></g><g fill="none"><mask id="j" width="15" height="158" x="329" y="112" maskUnits="userSpaceOnUse" style="mask-type:alpha"><path fill="#B26F6D" d="m329.923 120 13.856-8v150l-13.856 8z"/></mask><g mask="url(#j)"><path fill="#1C1C1C" d="m322.128 99.5 21.65 12.5v150l-21.65-12.5z"/><path fill="#3D3D3D" d="m308.272 257.5 13.856-8L343.78 262l-13.856 8z"/></g><mask id="k" width="14" height="158" x="226" y="172" maskUnits="userSpaceOnUse" style="mask-type:alpha"><path fill="#B26F6D" d="m226 180 13.856-8v150L226 330z"/></mask><g mask="url(#k)"><path fill="#1C1C1C" d="m218.206 159.5 21.65 12.5v150l-21.65-12.5z"/><path fill="#3D3D3D" d="m204.35 317.5 13.856-8 21.651 12.5-13.856 8z"/></g></g></svg>