<svg xmlns="http://www.w3.org/2000/svg" viewBox="0 0 500 500"><g fill="none"><g clip-path="url(#a)"><path fill="#C59FFB" d="M0 0h500v500H0z"/></g><defs><clipPath id="a"><path fill="#fff" d="M0 0h500v500H0z"/></clipPath></defs></g><path fill="#79A4F9" fill-opacity="0" d="M0 0h500v500H0z"/><g fill="none"><g clip-path="url(#b)"><path fill="#5E0F87" d="m267.641 430 103.923 60-34.641 20L233 450z"/><path fill="#3F0A5B" d="m233 450 103.923 60v40L233 490z"/><path fill="#1B0427" d="m336.923 510 34.641-20v40l-34.641 20z"/><path fill="#6F129F" d="m267.641 390 103.923 60-34.641 20L233 410z"/><path fill="#5D0F86" d="m233 410 103.923 60v40L233 450z"/><path fill="#29073B" d="m336.923 470 34.641-20v40l-34.641 20z"/><path fill="#5E0F87" d="m233 410 103.923 60-34.641 20-103.923-60z"/><path fill="#3F0A5B" d="m198.359 430 103.923 60v40l-103.923-60z"/><path fill="#1B0427" d="m302.282 490 34.641-20v40l-34.641 20z"/><path fill="#6F129F" d="m198.359 430 103.923 60-34.641 20-103.923-60z"/><path fill="#5D0F86" d="m163.718 450 103.923 60v40l-103.923-60z"/><path fill="#29073B" d="m267.641 510 34.641-20v40l-34.641 20z"/><path fill="#5E0F87" d="m267.641 350 103.923 60-34.641 20L233 370z"/><path fill="#3F0A5B" d="m233 370 103.923 60v40L233 410z"/><path fill="#1B0427" d="m336.923 430 34.641-20v40l-34.641 20z"/><path fill="#6F129F" d="m233 370 103.923 60-34.641 20-103.923-60z"/><path fill="#5D0F86" d="m198.359 390 103.923 60v40l-103.923-60z"/><path fill="#29073B" d="m302.282 450 34.641-20v40l-34.641 20z"/><path fill="#5E0F87" d="m198.359 390 103.923 60-34.641 20-103.923-60z"/><path fill="#3F0A5B" d="m163.718 410 103.923 60v40l-103.923-60z"/><path fill="#1B0427" d="m267.641 470 34.641-20v40l-34.641 20z"/><path fill="#6F129F" d="m163.718 410 103.923 60L233 490l-103.923-60z"/><path fill="#5D0F86" d="M129.077 430 233 490v40l-103.923-60z"/><path fill="#29073B" d="m233 490 34.641-20v40L233 530z"/><path fill="#5E0F87" d="M129.077 430 233 490l-34.641 20-103.923-60z"/><path fill="#3F0A5B" d="m94.436 450 103.923 60v40L94.436 490z"/><path fill="#1B0427" d="M198.359 510 233 490v40l-34.641 20z"/><path fill="#6F129F" d="m267.641 310 103.923 60-34.641 20L233 330z"/><path fill="#5D0F86" d="m233 330 103.923 60v40L233 370z"/><path fill="#29073B" d="m336.923 390 34.641-20v40l-34.641 20z"/><path fill="#5E0F87" d="m233 330 103.923 60-34.641 20-103.923-60z"/><path fill="#3F0A5B" d="m198.359 350 103.923 60v40l-103.923-60z"/><path fill="#1B0427" d="m302.282 410 34.641-20v40l-34.641 20z"/><path fill="#6F129F" d="m198.359 350 103.923 60-34.641 20-103.923-60z"/><path fill="#5D0F86" d="m163.718 370 103.923 60v40l-103.923-60z"/><path fill="#29073B" d="m267.641 430 34.641-20v40l-34.641 20z"/><path fill="#5E0F87" d="m163.718 370 103.923 60L233 450l-103.923-60z"/><path fill="#3F0A5B" d="M129.077 390 233 450v40l-103.923-60z"/><path fill="#1B0427" d="m233 450 34.641-20v40L233 490z"/><path fill="#6F129F" d="M129.077 390 233 450l-34.641 20-103.923-60z"/><path fill="#5D0F86" d="m94.436 410 103.923 60v40L94.436 450z"/><path fill="#29073B" d="M198.359 470 233 450v40l-34.641 20z"/><path fill="#5E0F87" d="m267.641 270 103.923 60-34.641 20L233 290z"/><path fill="#3F0A5B" d="m233 290 103.923 60v40L233 330z"/><path fill="#1B0427" d="m336.923 350 34.641-20v40l-34.641 20z"/><path fill="#6F129F" d="m233 290 103.923 60-34.641 20-103.923-60z"/><path fill="#5D0F86" d="m198.359 310 103.923 60v40l-103.923-60z"/><path fill="#29073B" d="m302.282 370 34.641-20v40l-34.641 20z"/><path fill="#5E0F87" d="m198.359 310 103.923 60-34.641 20-103.923-60z"/><path fill="#3F0A5B" d="m163.718 330 103.923 60v40l-103.923-60z"/><path fill="#1B0427" d="m267.641 390 34.641-20v40l-34.641 20z"/><path fill="#6F129F" d="m163.718 330 103.923 60L233 410l-103.923-60z"/><path fill="#5D0F86" d="M129.077 350 233 410v40l-103.923-60z"/><path fill="#29073B" d="m233 410 34.641-20v40L233 450z"/><path fill="#5E0F87" d="M129.077 350 233 410l-34.641 20-103.923-60z"/><path fill="#3F0A5B" d="m94.436 370 103.923 60v40L94.436 410z"/><path fill="#1B0427" d="M198.359 430 233 410v40l-34.641 20z"/><path fill="#570E7D" d="m116.941 383 34.641 20-34.641 20L82.3 403z"/><path fill="#390951" d="m82.3 403 34.64 20v120L82.3 523z"/><path fill="#190423" d="m116.941 423 34.641-20v120l-34.641 20z"/></g><defs><clipPath id="b"><path fill="#fff" d="M0 0h500v500H0z"/></clipPath></defs></g><path fill="#79A4F9" fill-opacity="0" d="M0 0h500v500H0z"/><g fill="none"><g clip-path="url(#c)"><path fill="#B29400" d="m302.282 490 34.641-20v40l-34.641 20z"/><path fill="#DFB800" d="m267.641 510 34.641-20v40l-34.641 20z"/><path fill="#B29400" d="m267.641 470 34.641-20v40l-34.641 20z"/><path fill="#DFB800" d="m233 490 34.641-20v40L233 530z"/><path fill="#B29400" d="m233 450 34.641-20v40L233 490z"/></g><defs><clipPath id="c"><path fill="#fff" d="M0 0h500v500H0z"/></clipPath></defs></g><g fill="none"><g filter="url(#d)"><path fill="#000" d="m234.046 281.262 136.342 78.717-120.046 69.309L114 350.57z"/></g><path fill="#6CCB00" d="m267.685 200 155.885 90-34.642 20-155.884-90z"/><path fill="#4D9100" d="m233.044 220 155.884 90v40l-155.884-90z"/><path fill="#1A3100" d="m388.929 310 34.641-20v40l-34.641 20z"/><path fill="#5CAD00" d="m233.044 220 155.884 90-34.64 20-155.885-90z"/><path fill="#4D9100" d="m198.403 240 155.885 90v40l-155.885-90z"/><path fill="#0A1300" d="m354.288 330 34.641-20v40l-34.641 20z"/><path fill="#6CCB00" d="m198.403 240 155.885 90-34.642 20-155.884-90z"/><path fill="#4D9100" d="m163.762 260 155.885 90v40l-155.885-90z"/><path fill="#1A3100" d="m319.647 350 34.641-20v40l-34.641 20z"/><path fill="#5CAD00" d="m163.762 260 155.885 90-34.642 20-155.884-90z"/><path fill="#4D9100" d="m129.121 280 155.884 90v40l-155.884-90z"/><path fill="#0A1300" d="m285.006 370 34.641-20v40l-34.641 20z"/><path fill="#6CCB00" d="m129.121 280 155.884 90-34.64 20L94.48 300z"/><path fill="#4D9100" d="m94.48 300 155.885 90v40L94.48 340z"/><path fill="#1A3100" d="m250.365 390 34.641-20v40l-34.641 20z"/><defs><filter id="d" width="286.388" height="178.027" x="99" y="278.262" color-interpolation-filters="sRGB" filterUnits="userSpaceOnUse"><feFlood flood-opacity="0" result="BackgroundImageFix"/><feColorMatrix in="SourceAlpha" result="hardAlpha" type="matrix" values="0 0 0 0 0 0 0 0 0 0 0 0 0 0 0 0 0 0 127 0"/><feOffset dy="12"/><feGaussianBlur stdDeviation="7.5"/><feColorMatrix type="matrix" values="0 0 0 0 0 0 0 0 0 0 0 0 0 0 0 0 0 0 0.5 0"/><feBlend in2="BackgroundImageFix" mode="normal" result="effect1_dropShadow_713_80995"/><feBlend in="SourceGraphic" in2="effect1_dropShadow_713_80995" mode="normal" result="shape"/></filter></defs></g><g fill="none"><g filter="url(#e)"><path fill="#000" d="m241.37 215.672 103.092 59.52-128.37 74.115L113 289.787z"/></g><path fill="#630F8B" d="m250.564 110 34.641 20-34.641 20-34.641-20z"/><path fill="#440B60" d="m215.923 130 34.641 20v100l-34.641-20z"/><path fill="#21052E" d="m250.564 150 34.641-20v100l-34.641 20z"/><path fill="#570E7A" d="m215.923 130 34.641 20-34.641 20-34.641-20z"/><path fill="#390950" d="m181.282 150 34.641 20v100l-34.641-20z"/><path fill="#180421" d="m215.923 170 34.641-20v100l-34.641 20z"/><path fill="#630F8B" d="m181.282 150 34.641 20-34.641 20-34.641-20z"/><path fill="#440B60" d="m146.641 170 34.641 20v100l-34.641-20z"/><path fill="#21052E" d="m181.282 190 34.641-20v100l-34.641 20z"/><path fill="#570E7A" d="m146.641 170 34.641 20-34.641 20L112 190z"/><path fill="#390950" d="m112 190 34.641 20v100L112 290z"/><path fill="#180421" d="m146.641 210 34.641-20v100l-34.641 20z"/><path fill="#570E7A" d="m285.205 130 34.641 20-34.641 20-34.641-20z"/><path fill="#390950" d="m250.564 150 34.641 20v100l-34.641-20z"/><path fill="#180421" d="m285.205 170 34.641-20v100l-34.641 20z"/><path fill="#630F8B" d="m250.564 150 34.641 20-34.641 20-34.641-20z"/><path fill="#440B60" d="m215.923 170 34.641 20v100l-34.641-20z"/><path fill="#21052E" d="m250.564 190 34.641-20v100l-34.641 20z"/><path fill="#570E7A" d="m215.923 170 34.641 20-34.641 20-34.641-20z"/><path fill="#390950" d="m181.282 190 34.641 20v100l-34.641-20z"/><path fill="#180421" d="m215.923 210 34.641-20v100l-34.641 20z"/><path fill="#630F8B" d="m181.282 190 34.641 20-34.641 20-34.641-20z"/><path fill="#440B60" d="m146.641 210 34.641 20v100l-34.641-20z"/><path fill="#21052E" d="m181.282 230 34.641-20v100l-34.641 20z"/><path fill="#630F8B" d="m319.846 150 34.641 20-34.641 20-34.641-20z"/><path fill="#440B60" d="m285.205 170 34.641 20v100l-34.641-20z"/><path fill="#21052E" d="m319.846 190 34.641-20v100l-34.641 20z"/><path fill="#570E7A" d="m285.205 170 34.641 20-34.641 20-34.641-20z"/><path fill="#390950" d="m250.564 190 34.641 20v100l-34.641-20z"/><path fill="#180421" d="m285.205 210 34.641-20v100l-34.641 20z"/><path fill="#630F8B" d="m250.564 190 34.641 20-34.641 20-34.641-20z"/><path fill="#440B60" d="m215.923 210 34.641 20v100l-34.641-20z"/><path fill="#21052E" d="m250.564 230 34.641-20v100l-34.641 20z"/><path fill="#570E7A" d="m215.923 210 34.641 20-34.641 20-34.641-20z"/><path fill="#390950" d="m181.282 230 34.641 20v100l-34.641-20z"/><path fill="#180421" d="m215.923 250 34.641-20v100l-34.641 20z"/><defs><filter id="e" width="268.662" height="170.837" x="106.4" y="205.072" color-interpolation-filters="sRGB" filterUnits="userSpaceOnUse"><feFlood flood-opacity="0" result="BackgroundImageFix"/><feColorMatrix in="SourceAlpha" result="hardAlpha" type="matrix" values="0 0 0 0 0 0 0 0 0 0 0 0 0 0 0 0 0 0 127 0"/><feMorphology in="SourceAlpha" operator="dilate" radius="5" result="effect1_dropShadow_713_80995"/><feOffset dx="12" dy="8"/><feGaussianBlur stdDeviation="6.8"/><feColorMatrix type="matrix" values="0 0 0 0 0 0 0 0 0 0 0 0 0 0 0 0 0 0 0.16 0"/><feBlend in2="BackgroundImageFix" mode="normal" result="effect1_dropShadow_713_80995"/><feBlend in="SourceGraphic" in2="effect1_dropShadow_713_80995" mode="normal" result="shape"/></filter></defs></g><g fill="none"><path fill="#17FCAB" d="m215.923 50 69.282 40-34.641 20-69.282-40z"/><path fill="#00A984" d="m181.282 70 69.282 40v40l-69.282-40z"/><path fill="#006855" d="m250.564 110 34.641-20v40l-34.641 20z"/><path fill="#17FCAB" d="m112 110 69.282 40-34.641 20-69.282-40z"/><path fill="#00A984" d="m77.359 130 69.282 40v40l-69.282-40z"/><path fill="#006855" d="m146.641 170 34.641-20v40l-34.641 20z"/></g><g fill="none"><path fill="#fff" d="m319.846 150 34.641 20-34.641 20-34.641-20z"/><path fill="#B3D0D5" d="m319.846 190 34.641-20v100l-34.641 20z"/><path fill="#fff" d="m215.923 210 34.641 20-34.641 20-34.641-20z"/><path fill="#E9F1F3" d="m181.282 230 34.641 20v100l-34.641-20z"/><path fill="#B3D0D5" d="m215.923 250 34.641-20v100l-34.641 20z"/></g><path fill="#79A4F9" fill-opacity="0" d="M0 0h500v500H0z"/></svg>