<svg xmlns="http://www.w3.org/2000/svg" viewBox="0 0 500 500"><g fill="none"><g clip-path="url(#a)"><path fill="#FFB184" d="M0 0h500v500H0z"/></g><defs><clipPath id="a"><path fill="#fff" d="M0 0h500v500H0z"/></clipPath></defs></g><path fill="#79A4F9" fill-opacity="0" d="M0 0h500v500H0z"/><g fill="none"><g clip-path="url(#b)"><path fill="#5E0F87" d="m267.641 430 103.923 60-34.641 20L233 450z"/><path fill="#3F0A5B" d="m233 450 103.923 60v40L233 490z"/><path fill="#1B0427" d="m336.923 510 34.641-20v40l-34.641 20z"/><path fill="#6F129F" d="m267.641 390 103.923 60-34.641 20L233 410z"/><path fill="#5D0F86" d="m233 410 103.923 60v40L233 450z"/><path fill="#29073B" d="m336.923 470 34.641-20v40l-34.641 20z"/><path fill="#5E0F87" d="m233 410 103.923 60-34.641 20-103.923-60z"/><path fill="#3F0A5B" d="m198.359 430 103.923 60v40l-103.923-60z"/><path fill="#1B0427" d="m302.282 490 34.641-20v40l-34.641 20z"/><path fill="#6F129F" d="m198.359 430 103.923 60-34.641 20-103.923-60z"/><path fill="#5D0F86" d="m163.718 450 103.923 60v40l-103.923-60z"/><path fill="#29073B" d="m267.641 510 34.641-20v40l-34.641 20z"/><path fill="#5E0F87" d="m267.641 350 103.923 60-34.641 20L233 370z"/><path fill="#3F0A5B" d="m233 370 103.923 60v40L233 410z"/><path fill="#1B0427" d="m336.923 430 34.641-20v40l-34.641 20z"/><path fill="#6F129F" d="m233 370 103.923 60-34.641 20-103.923-60z"/><path fill="#5D0F86" d="m198.359 390 103.923 60v40l-103.923-60z"/><path fill="#29073B" d="m302.282 450 34.641-20v40l-34.641 20z"/><path fill="#5E0F87" d="m198.359 390 103.923 60-34.641 20-103.923-60z"/><path fill="#3F0A5B" d="m163.718 410 103.923 60v40l-103.923-60z"/><path fill="#1B0427" d="m267.641 470 34.641-20v40l-34.641 20z"/><path fill="#6F129F" d="m163.718 410 103.923 60L233 490l-103.923-60z"/><path fill="#5D0F86" d="M129.077 430 233 490v40l-103.923-60z"/><path fill="#29073B" d="m233 490 34.641-20v40L233 530z"/><path fill="#5E0F87" d="M129.077 430 233 490l-34.641 20-103.923-60z"/><path fill="#3F0A5B" d="m94.436 450 103.923 60v40L94.436 490z"/><path fill="#1B0427" d="M198.359 510 233 490v40l-34.641 20z"/><path fill="#6F129F" d="m267.641 310 103.923 60-34.641 20L233 330z"/><path fill="#5D0F86" d="m233 330 103.923 60v40L233 370z"/><path fill="#29073B" d="m336.923 390 34.641-20v40l-34.641 20z"/><path fill="#5E0F87" d="m233 330 103.923 60-34.641 20-103.923-60z"/><path fill="#3F0A5B" d="m198.359 350 103.923 60v40l-103.923-60z"/><path fill="#1B0427" d="m302.282 410 34.641-20v40l-34.641 20z"/><path fill="#6F129F" d="m198.359 350 103.923 60-34.641 20-103.923-60z"/><path fill="#5D0F86" d="m163.718 370 103.923 60v40l-103.923-60z"/><path fill="#29073B" d="m267.641 430 34.641-20v40l-34.641 20z"/><path fill="#5E0F87" d="m163.718 370 103.923 60L233 450l-103.923-60z"/><path fill="#3F0A5B" d="M129.077 390 233 450v40l-103.923-60z"/><path fill="#1B0427" d="m233 450 34.641-20v40L233 490z"/><path fill="#6F129F" d="M129.077 390 233 450l-34.641 20-103.923-60z"/><path fill="#5D0F86" d="m94.436 410 103.923 60v40L94.436 450z"/><path fill="#29073B" d="M198.359 470 233 450v40l-34.641 20z"/><path fill="#5E0F87" d="m267.641 270 103.923 60-34.641 20L233 290z"/><path fill="#3F0A5B" d="m233 290 103.923 60v40L233 330z"/><path fill="#1B0427" d="m336.923 350 34.641-20v40l-34.641 20z"/><path fill="#6F129F" d="m233 290 103.923 60-34.641 20-103.923-60z"/><path fill="#5D0F86" d="m198.359 310 103.923 60v40l-103.923-60z"/><path fill="#29073B" d="m302.282 370 34.641-20v40l-34.641 20z"/><path fill="#5E0F87" d="m198.359 310 103.923 60-34.641 20-103.923-60z"/><path fill="#3F0A5B" d="m163.718 330 103.923 60v40l-103.923-60z"/><path fill="#1B0427" d="m267.641 390 34.641-20v40l-34.641 20z"/><path fill="#6F129F" d="m163.718 330 103.923 60L233 410l-103.923-60z"/><path fill="#5D0F86" d="M129.077 350 233 410v40l-103.923-60z"/><path fill="#29073B" d="m233 410 34.641-20v40L233 450z"/><path fill="#5E0F87" d="M129.077 350 233 410l-34.641 20-103.923-60z"/><path fill="#3F0A5B" d="m94.436 370 103.923 60v40L94.436 410z"/><path fill="#1B0427" d="M198.359 430 233 410v40l-34.641 20z"/><path fill="#570E7D" d="m116.941 383 34.641 20-34.641 20L82.3 403z"/><path fill="#390951" d="m82.3 403 34.64 20v120L82.3 523z"/><path fill="#190423" d="m116.941 423 34.641-20v120l-34.641 20z"/></g><defs><clipPath id="b"><path fill="#fff" d="M0 0h500v500H0z"/></clipPath></defs></g><path fill="#79A4F9" fill-opacity="0" d="M0 0h500v500H0z"/><g fill="none"><g clip-path="url(#c)"><path fill="#B25001" d="m302.282 490 34.641-20v40l-34.641 20z"/><path fill="#DF6401" d="m267.641 510 34.641-20v40l-34.641 20zm34.641-60 34.641-20v40l-34.641 20zM233 490l34.641-20v40L233 530z"/><path fill="#B25001" d="m302.282 410 34.641-20v40l-34.641 20z"/><path fill="#DF6401" d="m267.641 430 34.641-20v40l-34.641 20z"/><path fill="#B25001" d="m233 450 34.641-20v40L233 490z"/></g><defs><clipPath id="c"><path fill="#fff" d="M0 0h500v500H0z"/></clipPath></defs></g><g fill="none"><g filter="url(#d)"><path fill="#0A0300" d="m199.761 299.141 163.434 94.358-87.313 50.41-163.434-94.358z"/></g><path fill="#4D4D4D" d="m267.685 200 190.526 110-34.642 20-190.525-110z"/><path fill="#262626" d="M233.044 220 423.57 330v40L233.044 260z"/><path fill="#121212" d="m423.569 330 34.641-20v40l-34.641 20z"/><path fill="#404040" d="M233.044 220 423.57 330l-34.642 20-190.525-110z"/><path fill="#1A1A1A" d="m198.403 240 190.526 110v40L198.402 280z"/><path fill="#000" d="m388.928 350 34.641-20v40l-34.641 20z"/><path fill="#4D4D4D" d="m198.403 240 190.526 110-34.641 20-190.526-110z"/><path fill="#262626" d="m163.762 260 190.526 110v40L163.762 300z"/><path fill="#121212" d="m354.288 370 34.641-20v40l-34.641 20z"/><path fill="#404040" d="m163.762 260 190.526 110-34.642 20-190.525-110z"/><path fill="#1A1A1A" d="m129.121 280 190.526 110v40L129.12 320z"/><path fill="#000" d="m319.646 390 34.641-20v40l-34.641 20z"/><path fill="#4D4D4D" d="m129.121 280 190.526 110-34.642 20L94.48 300z"/><path fill="#262626" d="m94.48 300 190.526 110v40L94.48 340z"/><path fill="#121212" d="m285.005 410 34.641-20v40l-34.641 20z"/><defs><filter id="d" width="280.746" height="174.77" x="97.448" y="296.141" color-interpolation-filters="sRGB" filterUnits="userSpaceOnUse"><feFlood flood-opacity="0" result="BackgroundImageFix"/><feColorMatrix in="SourceAlpha" result="hardAlpha" type="matrix" values="0 0 0 0 0 0 0 0 0 0 0 0 0 0 0 0 0 0 127 0"/><feOffset dy="12"/><feGaussianBlur stdDeviation="7.5"/><feColorMatrix type="matrix" values="0 0 0 0 0.04 0 0 0 0 0.012 0 0 0 0 0 0 0 0 0.5 0"/><feBlend in2="BackgroundImageFix" mode="normal" result="effect1_dropShadow_713_80995"/><feBlend in="SourceGraphic" in2="effect1_dropShadow_713_80995" mode="normal" result="shape"/></filter></defs></g><g fill="none"><mask id="e" width="23" height="28" x="107" y="320" maskUnits="userSpaceOnUse" style="mask-type:alpha"><path fill="#D4D4D4" d="m107 320.797 22.517 13v14l-22.517-13z"/></mask><g mask="url(#e)"><path fill="#D4D4D4" d="m107 320.797 21.65-12.5v14l-21.65 12.5z"/><path fill="#FAFAFA" d="m128.65 322.297 22.517 13-21.651 12.5-22.517-13z"/><path fill="#AEAEAE" d="m128.65 308.297 22.517 13v14l-22.517-13z"/></g><mask id="f" width="23" height="28" x="143" y="341" maskUnits="userSpaceOnUse" style="mask-type:alpha"><path fill="#D4D4D4" d="m143 341.594 22.517 13v14l-22.517-13z"/></mask><g mask="url(#f)"><path fill="#D4D4D4" d="m143 341.594 21.65-12.5v14l-21.65 12.5z"/><path fill="#FAFAFA" d="m164.65 343.094 22.517 13-21.651 12.5-22.517-13z"/><path fill="#AEAEAE" d="m164.65 329.094 22.517 13v14l-22.517-13z"/></g><mask id="g" width="23" height="28" x="178" y="361" maskUnits="userSpaceOnUse" style="mask-type:alpha"><path fill="#D4D4D4" d="m178 361.797 22.517 13v14l-22.517-13z"/></mask><g mask="url(#g)"><path fill="#D4D4D4" d="m178 361.797 21.65-12.5v14l-21.65 12.5z"/><path fill="#FAFAFA" d="m199.65 363.297 22.517 13-21.651 12.5-22.517-13z"/><path fill="#AEAEAE" d="m199.65 349.297 22.517 13v14l-22.517-13z"/></g></g><g fill="none"><g filter="url(#h)"><path fill="#030202" d="m241.406 215.648 103.092 59.52-128.37 74.116-103.093-59.521z"/></g><path fill="#774B1B" d="m250.564 110 34.641 20-34.641 20-34.641-20z"/><path fill="#543513" d="m215.923 130 34.641 20v100l-34.641-20z"/><path fill="#190F06" d="m250.564 150 34.641-20v100l-34.641 20z"/><path fill="#54351D" d="m215.923 130 34.641 20-34.641 20-34.641-20z"/><path fill="#482D10" d="m181.282 150 34.641 20v100l-34.641-20z"/><path fill="#0C0803" d="m215.923 170 34.641-20v100l-34.641 20z"/><path fill="#A55E1B" d="m181.282 150 34.641 20-34.641 20-34.641-20z"/><path fill="#543513" d="m146.641 170 34.641 20v100l-34.641-20z"/><path fill="#190F06" d="m181.282 190 34.641-20v100l-34.641 20z"/><path fill="#6B4318" d="m146.641 170 34.641 20-34.641 20L112 190z"/><path fill="#47280C" d="m112 190 34.641 20v100L112 290z"/><path fill="#0C0803" d="m146.641 210 34.641-20v100l-34.641 20z"/><path fill="#8F5117" d="m285.205 130 34.641 20-34.641 20-34.641-20z"/><path fill="#482D10" d="m250.564 150 34.641 20v100l-34.641-20z"/><path fill="#0C0803" d="m285.205 170 34.641-20v100l-34.641 20z"/><path fill="#A55E1B" d="m250.564 150 34.641 20-34.641 20-34.641-20z"/><path fill="#543513" d="m215.923 170 34.641 20v100l-34.641-20z"/><path fill="#190F06" d="m250.564 190 34.641-20v100l-34.641 20z"/><path fill="#54351D" d="m215.923 170 34.641 20-34.641 20-34.641-20z"/><path fill="#482D10" d="m181.282 190 34.641 20v100l-34.641-20z"/><path fill="#0C0803" d="m215.923 210 34.641-20v100l-34.641 20z"/><path fill="#A55E1B" d="m181.282 190 34.641 20-34.641 20-34.641-20z"/><path fill="#804915" d="m146.641 210 34.641 20v100l-34.641-20z"/><path fill="#190F06" d="m181.282 230 34.641-20v100l-34.641 20z"/><path fill="#774B1B" d="m319.846 150 34.641 20-34.641 20-34.641-20z"/><path fill="#543513" d="m285.205 170 34.641 20v100l-34.641-20z"/><path fill="#190F06" d="m319.846 190 34.641-20v100l-34.641 20z"/><path fill="#914F11" d="m285.205 170 34.641 20-34.641 20-34.641-20z"/><path fill="#482D10" d="m250.564 190 34.641 20v100l-34.641-20z"/><path fill="#482809" d="m285.205 210 34.641-20v100l-34.641 20z"/><path fill="#B7681E" d="m250.564 190 34.641 20-34.641 20-34.641-20z"/><path fill="#543513" d="m215.923 210 34.641 20v100l-34.641-20z"/><path fill="#532F0E" d="m250.564 230 34.641-20v100l-34.641 20z"/><path fill="#6B4318" d="m215.923 210 34.641 20-34.641 20-34.641-20z"/><path fill="#482D10" d="m181.282 230 34.641 20v100l-34.641-20z"/><path fill="#0C0803" d="m215.923 250 34.641-20v100l-34.641 20z"/><defs><filter id="h" width="268.664" height="170.837" x="106.435" y="205.048" color-interpolation-filters="sRGB" filterUnits="userSpaceOnUse"><feFlood flood-opacity="0" result="BackgroundImageFix"/><feColorMatrix in="SourceAlpha" result="hardAlpha" type="matrix" values="0 0 0 0 0 0 0 0 0 0 0 0 0 0 0 0 0 0 127 0"/><feMorphology in="SourceAlpha" operator="dilate" radius="5" result="effect1_dropShadow_713_80995"/><feOffset dx="12" dy="8"/><feGaussianBlur stdDeviation="6.8"/><feColorMatrix type="matrix" values="0 0 0 0 0.0107 0 0 0 0 0.0093 0 0 0 0 0.0093 0 0 0 0.16 0"/><feBlend in2="BackgroundImageFix" mode="normal" result="effect1_dropShadow_713_80995"/><feBlend in="SourceGraphic" in2="effect1_dropShadow_713_80995" mode="normal" result="shape"/></filter></defs></g><g fill="none"><path fill="#404040" d="m285.205 10 34.641 20-69.282 40-34.641-20z"/><path fill="#1F1F1F" d="m215.923 50 34.641 20v80l-34.641-20z"/><path fill="#000" fill-rule="evenodd" d="m285.205 50-34.641 20v80l34.642-20.001 34.64 20V30z" clip-rule="evenodd"/><path fill="#404040" d="m146.641 90 34.641 20L112 150l-34.641-20z"/><path fill="#1F1F1F" d="m77.359 130 34.64 20v120l-34.64-20z"/><path fill="#000" fill-rule="evenodd" d="M146.641 130 112 150v120l34.641-20v-40l34.641-20v-80z" clip-rule="evenodd"/></g><g fill="none"><path fill="#fff" d="m354.487 90 34.641 20-69.282 40-34.641-20z"/><path fill="#E9F1F3" d="m285.205 130 34.641 20v40l-34.641-20z"/><path fill="#B3D0D5" d="m319.846 150 69.282-40v140l-69.282 40z"/><path fill="#fff" d="m250.564 150 34.641 20-69.282 40-34.641-20z"/><path fill="#E9F1F3" d="m181.282 190 34.641 20v140l-34.641-20z"/><path fill="#B3D0D5" d="m215.923 210 69.282-40v140l-69.282 40z"/></g><g fill="none"><mask id="i" width="15" height="38" x="329" y="232" maskUnits="userSpaceOnUse" style="mask-type:alpha"><path fill="#B26F6D" d="m329.923 240 13.856-8v30l-13.856 8z"/></mask><g mask="url(#i)"><path fill="#1C1C1C" d="m322.128 219.5 21.65 12.5v30l-21.65-12.5z"/><path fill="#3D3D3D" d="m308.272 257.5 13.856-8L343.78 262l-13.856 8z"/></g><mask id="j" width="14" height="38" x="226" y="292" maskUnits="userSpaceOnUse" style="mask-type:alpha"><path fill="#B26F6D" d="m226 300 13.856-8v30L226 330z"/></mask><g mask="url(#j)"><path fill="#1C1C1C" d="m218.206 279.5 21.65 12.5v30l-21.65-12.5z"/><path fill="#3D3D3D" d="m204.35 317.5 13.856-8 21.651 12.5-13.856 8z"/></g></g></svg>