<svg xmlns="http://www.w3.org/2000/svg" viewBox="0 0 500 500"><g fill="none"><g clip-path="url(#a)"><path fill="#91C4FF" d="M0 0h500v500H0z"/></g><defs><clipPath id="a"><path fill="#fff" d="M0 0h500v500H0z"/></clipPath></defs></g><path fill="#79A4F9" fill-opacity="0" d="M0 0h500v500H0z"/><g fill="none"><g clip-path="url(#b)"><path fill="#0B640B" d="m267.641 430 103.923 60-34.641 20L233 450z"/><path fill="#074307" d="m233 450 103.923 60v40L233 490z"/><path fill="#031C03" d="m336.923 510 34.641-20v40l-34.641 20z"/><path fill="#0D760D" d="m267.641 390 103.923 60-34.641 20L233 410z"/><path fill="#0B630B" d="m233 410 103.923 60v40L233 450z"/><path fill="#052C05" d="m336.923 470 34.641-20v40l-34.641 20z"/><path fill="#0B640B" d="m233 410 103.923 60-34.641 20-103.923-60z"/><path fill="#074307" d="m198.359 430 103.923 60v40l-103.923-60z"/><path fill="#031C03" d="m302.282 490 34.641-20v40l-34.641 20z"/><path fill="#0D760D" d="m198.359 430 103.923 60-34.641 20-103.923-60z"/><path fill="#0B630B" d="m163.718 450 103.923 60v40l-103.923-60z"/><path fill="#052C05" d="m267.641 510 34.641-20v40l-34.641 20z"/><path fill="#0B640B" d="m267.641 350 103.923 60-34.641 20L233 370z"/><path fill="#074307" d="m233 370 103.923 60v40L233 410z"/><path fill="#031C03" d="m336.923 430 34.641-20v40l-34.641 20z"/><path fill="#0D760D" d="m233 370 103.923 60-34.641 20-103.923-60z"/><path fill="#0B630B" d="m198.359 390 103.923 60v40l-103.923-60z"/><path fill="#052C05" d="m302.282 450 34.641-20v40l-34.641 20z"/><path fill="#0B640B" d="m198.359 390 103.923 60-34.641 20-103.923-60z"/><path fill="#074307" d="m163.718 410 103.923 60v40l-103.923-60z"/><path fill="#031C03" d="m267.641 470 34.641-20v40l-34.641 20z"/><path fill="#0D760D" d="m163.718 410 103.923 60L233 490l-103.923-60z"/><path fill="#0B630B" d="M129.077 430 233 490v40l-103.923-60z"/><path fill="#052C05" d="m233 490 34.641-20v40L233 530z"/><path fill="#0B640B" d="M129.077 430 233 490l-34.641 20-103.923-60z"/><path fill="#074307" d="m94.436 450 103.923 60v40L94.436 490z"/><path fill="#031C03" d="M198.359 510 233 490v40l-34.641 20z"/><path fill="#0D760D" d="m267.641 310 103.923 60-34.641 20L233 330z"/><path fill="#0B630B" d="m233 330 103.923 60v40L233 370z"/><path fill="#052C05" d="m336.923 390 34.641-20v40l-34.641 20z"/><path fill="#0B640B" d="m233 330 103.923 60-34.641 20-103.923-60z"/><path fill="#074307" d="m198.359 350 103.923 60v40l-103.923-60z"/><path fill="#031C03" d="m302.282 410 34.641-20v40l-34.641 20z"/><path fill="#0D760D" d="m198.359 350 103.923 60-34.641 20-103.923-60z"/><path fill="#0B630B" d="m163.718 370 103.923 60v40l-103.923-60z"/><path fill="#052C05" d="m267.641 430 34.641-20v40l-34.641 20z"/><path fill="#0B640B" d="m163.718 370 103.923 60L233 450l-103.923-60z"/><path fill="#074307" d="M129.077 390 233 450v40l-103.923-60z"/><path fill="#031C03" d="m233 450 34.641-20v40L233 490z"/><path fill="#0D760D" d="M129.077 390 233 450l-34.641 20-103.923-60z"/><path fill="#0B630B" d="m94.436 410 103.923 60v40L94.436 450z"/><path fill="#052C05" d="M198.359 470 233 450v40l-34.641 20z"/><path fill="#0B640B" d="m267.641 270 103.923 60-34.641 20L233 290z"/><path fill="#074307" d="m233 290 103.923 60v40L233 330z"/><path fill="#031C03" d="m336.923 350 34.641-20v40l-34.641 20z"/><path fill="#0D760D" d="m233 290 103.923 60-34.641 20-103.923-60z"/><path fill="#0B630B" d="m198.359 310 103.923 60v40l-103.923-60z"/><path fill="#052C05" d="m302.282 370 34.641-20v40l-34.641 20z"/><path fill="#0B640B" d="m198.359 310 103.923 60-34.641 20-103.923-60z"/><path fill="#074307" d="m163.718 330 103.923 60v40l-103.923-60z"/><path fill="#031C03" d="m267.641 390 34.641-20v40l-34.641 20z"/><path fill="#0D760D" d="m163.718 330 103.923 60L233 410l-103.923-60z"/><path fill="#0B630B" d="M129.077 350 233 410v40l-103.923-60z"/><path fill="#052C05" d="m233 410 34.641-20v40L233 450z"/><path fill="#0B640B" d="M129.077 350 233 410l-34.641 20-103.923-60z"/><path fill="#074307" d="m94.436 370 103.923 60v40L94.436 410z"/><path fill="#031C03" d="M198.359 430 233 410v40l-34.641 20z"/><path fill="#0A5D0A" d="m116.941 383 34.641 20-34.641 20L82.3 403z"/><path fill="#073C07" d="m82.3 403 34.64 20v120L82.3 523z"/><path fill="#031A03" d="m116.941 423 34.641-20v120l-34.641 20z"/></g><defs><clipPath id="b"><path fill="#fff" d="M0 0h500v500H0z"/></clipPath></defs></g><path fill="#79A4F9" fill-opacity="0" d="M0 0h500v500H0z"/><g fill="none"><g clip-path="url(#c)"><path fill="#DFB800" d="m302.282 450 34.641-20v40l-34.641 20z"/><path fill="#B29400" d="m267.641 470 34.641-20v40l-34.641 20z"/><path fill="#DFB800" d="m267.641 430 34.641-20v40l-34.641 20z"/><path fill="#B29400" d="m233 450 34.641-20v40L233 490z"/></g><defs><clipPath id="c"><path fill="#fff" d="M0 0h500v500H0z"/></clipPath></defs></g><g fill="none"><g filter="url(#d)"><path fill="#000" d="m234.046 281.262 136.342 78.717-120.046 69.309L114 350.57z"/></g><path fill="#6CCB00" d="m267.685 200 155.885 90-34.642 20-155.884-90z"/><path fill="#4D9100" d="m233.044 220 155.884 90v40l-155.884-90z"/><path fill="#1A3100" d="m388.929 310 34.641-20v40l-34.641 20z"/><path fill="#5CAD00" d="m233.044 220 155.884 90-34.64 20-155.885-90z"/><path fill="#4D9100" d="m198.403 240 155.885 90v40l-155.885-90z"/><path fill="#0A1300" d="m354.288 330 34.641-20v40l-34.641 20z"/><path fill="#6CCB00" d="m198.403 240 155.885 90-34.642 20-155.884-90z"/><path fill="#4D9100" d="m163.762 260 155.885 90v40l-155.885-90z"/><path fill="#1A3100" d="m319.647 350 34.641-20v40l-34.641 20z"/><path fill="#5CAD00" d="m163.762 260 155.885 90-34.642 20-155.884-90z"/><path fill="#4D9100" d="m129.121 280 155.884 90v40l-155.884-90z"/><path fill="#0A1300" d="m285.006 370 34.641-20v40l-34.641 20z"/><path fill="#6CCB00" d="m129.121 280 155.884 90-34.64 20L94.48 300z"/><path fill="#4D9100" d="m94.48 300 155.885 90v40L94.48 340z"/><path fill="#1A3100" d="m250.365 390 34.641-20v40l-34.641 20z"/><defs><filter id="d" width="286.388" height="178.027" x="99" y="278.262" color-interpolation-filters="sRGB" filterUnits="userSpaceOnUse"><feFlood flood-opacity="0" result="BackgroundImageFix"/><feColorMatrix in="SourceAlpha" result="hardAlpha" type="matrix" values="0 0 0 0 0 0 0 0 0 0 0 0 0 0 0 0 0 0 127 0"/><feOffset dy="12"/><feGaussianBlur stdDeviation="7.5"/><feColorMatrix type="matrix" values="0 0 0 0 0 0 0 0 0 0 0 0 0 0 0 0 0 0 0.5 0"/><feBlend in2="BackgroundImageFix" mode="normal" result="effect1_dropShadow_713_80995"/><feBlend in="SourceGraphic" in2="effect1_dropShadow_713_80995" mode="normal" result="shape"/></filter></defs></g><g fill="none"><mask id="e" width="136" height="92" x="104" y="319" maskUnits="userSpaceOnUse" style="mask-type:alpha"><path fill="#D9D9D9" d="m104.01 319 135.1 78v14l-135.1-78z"/></mask><g mask="url(#e)"><path fill="#262626" d="m104.01 319 21.65-12.5v14L104.01 333z"/><path fill="#000" d="m125.66 320.5 138.727 80.094-21.65 12.5L104.008 333z"/><path fill="#000" d="m125.66 306.5 135.1 78v14l-135.1-78z"/></g><g filter="url(#f)"><path fill="#4D4D4D" d="m145.37 343.547 44.617 25.76-34.932 20.168-44.617-25.76z"/></g><path fill="#D2123C" d="m132.138 335.234 46.765 27L155.06 376l-46.765-27z"/><path fill="#AA0F31" d="m108.294 349 46.765 27v13.893l-46.765-27z"/><path fill="#67091E" d="m155.06 375.997 23.792-13.796 12.03 6.95-35.822 20.738z"/><defs><filter id="f" width="109.549" height="75.93" x="95.438" y="340.547" color-interpolation-filters="sRGB" filterUnits="userSpaceOnUse"><feFlood flood-opacity="0" result="BackgroundImageFix"/><feColorMatrix in="SourceAlpha" result="hardAlpha" type="matrix" values="0 0 0 0 0 0 0 0 0 0 0 0 0 0 0 0 0 0 127 0"/><feOffset dy="12"/><feGaussianBlur stdDeviation="7.5"/><feColorMatrix type="matrix" values="0 0 0 0 0.0992 0 0 0 0 0.06848 0 0 0 0 0.0608 0 0 0 0.5 0"/><feBlend in2="BackgroundImageFix" mode="normal" result="effect1_dropShadow_713_80995"/><feBlend in="SourceGraphic" in2="effect1_dropShadow_713_80995" mode="normal" result="shape"/></filter></defs></g><g fill="none"><g filter="url(#g)"><path fill="#000" d="m241.37 215.672 103.092 59.52-128.37 74.115L113 289.787z"/></g><path fill="#A71380" d="m250.564 110 34.641 20-34.641 20-34.641-20z"/><path fill="#720D57" d="m215.923 130 34.641 20v100l-34.641-20z"/><path fill="#36062A" d="m250.564 150 34.641-20v100l-34.641 20z"/><path fill="#931071" d="m215.923 130 34.641 20-34.641 20-34.641-20z"/><path fill="#5F0B49" d="m181.282 150 34.641 20v100l-34.641-20z"/><path fill="#27041E" d="m215.923 170 34.641-20v100l-34.641 20z"/><path fill="#A71380" d="m181.282 150 34.641 20-34.641 20-34.641-20z"/><path fill="#720D57" d="m146.641 170 34.641 20v100l-34.641-20z"/><path fill="#36062A" d="m181.282 190 34.641-20v100l-34.641 20z"/><path fill="#931071" d="m146.641 170 34.641 20-34.641 20L112 190z"/><path fill="#5F0B49" d="m112 190 34.641 20v100L112 290z"/><path fill="#27041E" d="m146.641 210 34.641-20v100l-34.641 20z"/><path fill="#931071" d="m285.205 130 34.641 20-34.641 20-34.641-20z"/><path fill="#5F0B49" d="m250.564 150 34.641 20v100l-34.641-20z"/><path fill="#27041E" d="m285.205 170 34.641-20v100l-34.641 20z"/><path fill="#A71380" d="m250.564 150 34.641 20-34.641 20-34.641-20z"/><path fill="#720D57" d="m215.923 170 34.641 20v100l-34.641-20z"/><path fill="#36062A" d="m250.564 190 34.641-20v100l-34.641 20z"/><path fill="#931071" d="m215.923 170 34.641 20-34.641 20-34.641-20z"/><path fill="#5F0B49" d="m181.282 190 34.641 20v100l-34.641-20z"/><path fill="#27041E" d="m215.923 210 34.641-20v100l-34.641 20z"/><path fill="#A71380" d="m181.282 190 34.641 20-34.641 20-34.641-20z"/><path fill="#720D57" d="m146.641 210 34.641 20v100l-34.641-20z"/><path fill="#36062A" d="m181.282 230 34.641-20v100l-34.641 20z"/><path fill="#A71380" d="m319.846 150 34.641 20-34.641 20-34.641-20z"/><path fill="#720D57" d="m285.205 170 34.641 20v100l-34.641-20z"/><path fill="#36062A" d="m319.846 190 34.641-20v100l-34.641 20z"/><path fill="#931071" d="m285.205 170 34.641 20-34.641 20-34.641-20z"/><path fill="#5F0B49" d="m250.564 190 34.641 20v100l-34.641-20z"/><path fill="#27041E" d="m285.205 210 34.641-20v100l-34.641 20z"/><path fill="#A71380" d="m250.564 190 34.641 20-34.641 20-34.641-20z"/><path fill="#720D57" d="m215.923 210 34.641 20v100l-34.641-20z"/><path fill="#36062A" d="m250.564 230 34.641-20v100l-34.641 20z"/><path fill="#931071" d="m215.923 210 34.641 20-34.641 20-34.641-20z"/><path fill="#5F0B49" d="m181.282 230 34.641 20v100l-34.641-20z"/><path fill="#27041E" d="m215.923 250 34.641-20v100l-34.641 20z"/><defs><filter id="g" width="268.662" height="170.837" x="106.4" y="205.072" color-interpolation-filters="sRGB" filterUnits="userSpaceOnUse"><feFlood flood-opacity="0" result="BackgroundImageFix"/><feColorMatrix in="SourceAlpha" result="hardAlpha" type="matrix" values="0 0 0 0 0 0 0 0 0 0 0 0 0 0 0 0 0 0 127 0"/><feMorphology in="SourceAlpha" operator="dilate" radius="5" result="effect1_dropShadow_713_80995"/><feOffset dx="12" dy="8"/><feGaussianBlur stdDeviation="6.8"/><feColorMatrix type="matrix" values="0 0 0 0 0 0 0 0 0 0 0 0 0 0 0 0 0 0 0.16 0"/><feBlend in2="BackgroundImageFix" mode="normal" result="effect1_dropShadow_713_80995"/><feBlend in="SourceGraphic" in2="effect1_dropShadow_713_80995" mode="normal" result="shape"/></filter></defs></g><g fill="none"><path fill="#404040" d="m215.923 50 69.282 40-34.641 20-69.282-40z"/><path fill="#1F1F1F" d="m181.282 70 69.282 40v40l-69.282-40z"/><path fill="#000" d="m250.564 110 34.641-20v40l-34.641 20z"/><path fill="#404040" d="m112 110 69.282 40-34.641 20-69.282-40z"/><path fill="#1F1F1F" d="m77.359 130 69.282 40v40l-69.282-40z"/><path fill="#000" d="m146.641 170 34.641-20v40l-34.641 20z"/></g><g fill="none"><path fill="#FFFC42" d="m354.487 130 34.641 20-69.282 40-34.641-20z"/><path fill="#A8A500" d="m319.846 190 69.282-40v100l-69.282 40z"/><path fill="#FFFC42" d="m250.564 190 34.641 20-69.282 40-34.641-20z"/><path fill="#F3EF00" d="m181.282 230 34.641 20v100l-34.641-20z"/><path fill="#A8A500" d="m215.923 250 69.282-40v100l-69.282 40z"/></g><g fill="none"><mask id="h" width="15" height="38" x="329" y="192" maskUnits="userSpaceOnUse" style="mask-type:alpha"><path fill="#B26F6D" d="m329.923 200 13.856-8v30l-13.856 8z"/></mask><g mask="url(#h)"><path fill="#1C1C1C" d="m322.128 179.5 21.65 12.5v30l-21.65-12.5z"/><path fill="#3D3D3D" d="m308.272 217.5 13.856-8L343.78 222l-13.856 8z"/></g><mask id="i" width="14" height="38" x="226" y="252" maskUnits="userSpaceOnUse" style="mask-type:alpha"><path fill="#B26F6D" d="m226 260 13.856-8v30L226 290z"/></mask><g mask="url(#i)"><path fill="#1C1C1C" d="m218.206 239.5 21.65 12.5v30l-21.65-12.5z"/><path fill="#3D3D3D" d="m204.35 277.5 13.856-8 21.651 12.5-13.856 8z"/></g></g></svg>